<?xml version="1.0" encoding="iso-8859-1"?>
<!-- Uploaded to: SVG Repo, www.svgrepo.com, Generator: SVG Repo Mixer Tools -->
<svg height="800px" width="800px" version="1.1" id="Layer_1" xmlns="http://www.w3.org/2000/svg" xmlns:xlink="http://www.w3.org/1999/xlink" 
	 viewBox="0 0 512 512" xml:space="preserve">
<path style="fill:#4A5058;" d="M256,512c-65.68,0-127.428-25.577-173.871-72.019C35.687,393.538,10.11,331.789,10.11,266.11
	c0-48.686,14.209-95.76,41.093-136.13c7.577-11.379,22.944-14.461,34.325-6.884c11.379,7.577,14.461,22.944,6.883,34.325
	c-21.452,32.215-32.792,69.799-32.792,108.689c0,108.285,88.097,196.382,196.382,196.382s196.382-88.097,196.382-196.382
	c0-37.744-10.727-74.391-31.02-105.982c-19.783-30.795-47.64-55.417-80.562-71.205c-12.326-5.912-17.528-20.698-11.617-33.024
	c5.912-12.328,20.695-17.528,33.025-11.616c41.202,19.759,76.061,50.564,100.807,89.087c25.431,39.589,38.874,85.49,38.874,132.739
	c0,65.68-25.577,127.428-72.02,173.872C383.427,486.423,321.68,512,256,512z"/>
<path style="opacity:0.15;enable-background:new    ;" d="M340.801,88.923c32.922,15.789,60.778,40.41,80.562,71.205
	c20.293,31.589,31.02,68.238,31.02,105.982c0,51.304-19.783,98.067-52.112,133.086c38.895-35.906,63.297-87.288,63.297-144.27
	c0-37.744-10.727-74.391-31.02-105.982c-19.782-30.795-47.64-55.417-80.562-71.205c-12.326-5.912-17.528-20.698-11.617-33.024
	c0.046-0.097,0.098-0.189,0.145-0.286c-4.784,2.366-8.843,6.285-11.331,11.47C323.273,68.227,328.474,83.012,340.801,88.923z
	 M93.314,428.796c-46.442-46.443-72.019-108.191-72.019-173.871c0-47.534,13.551-93.526,39.212-133.247
	c-3.643,1.865-6.875,4.655-9.304,8.303C24.319,170.35,10.11,217.422,10.11,266.11c0,65.68,25.577,127.428,72.019,173.87
	c46.443,46.442,108.191,72.019,173.871,72.019s127.427-25.577,173.87-72.019c1.869-1.869,3.693-3.772,5.494-5.691
	c-45.738,42.953-105.143,66.526-168.18,66.526C201.505,500.814,139.757,475.237,93.314,428.796z"/>
<circle style="fill:#7E858B;" cx="256.001" cy="44.973" r="44.973"/>
<path style="opacity:0.2;enable-background:new    ;" d="M263.862,82.081c-24.839,0-44.973-20.136-44.973-44.973
	c0-10.414,3.549-19.994,9.491-27.617c-10.558,8.229-17.356,21.057-17.356,35.482c0,24.838,20.136,44.973,44.973,44.973
	c14.424,0,27.253-6.798,35.482-17.356C283.855,78.532,274.276,82.081,263.862,82.081z"/>
<path style="fill:#E45D4C;" d="M112.676,41.893L112.676,41.893c-16.113,10.3-21.485,31.327-12.288,48.092L212.379,294.14
	c14.462,26.365,48.214,34.988,73.551,18.792l0,0c25.337-16.196,31.681-50.45,13.824-74.645L161.483,50.932
	C150.127,35.545,128.788,31.593,112.676,41.893z"/>
<path style="opacity:0.2;enable-background:new    ;" d="M298.215,300.648L298.215,300.648
	c-25.337,16.196-59.09,7.571-73.551-18.792L112.673,77.7c-6.426-11.715-5.732-25.504,0.761-36.266
	c-0.253,0.153-0.508,0.299-0.758,0.459l0,0c-16.113,10.3-21.485,31.325-12.288,48.092L212.379,294.14
	c14.462,26.365,48.214,34.988,73.551,18.793l0,0c5.831-3.727,10.642-8.419,14.397-13.715
	C299.636,299.707,298.936,300.187,298.215,300.648z"/>
</svg>